<svg xmlns="http://www.w3.org/2000/svg" xmlns:xlink="http://www.w3.org/1999/xlink" viewBox="0 0 500 500"><defs><clipPath id="freepik--clip-path--inject-31"><path d="M240.27,211.61a64.17,64.17,0,0,1-4.63,7.48A63,63,0,0,1,155.05,238c-1.39-.73-2.75-1.51-4.05-2.33s-2.57-1.66-3.79-2.56c-1.48-1.07-2.9-2.21-4.26-3.4l0,0a1.65,1.65,0,0,1-.24-.22l0,0a63.08,63.08,0,1,1,97.61-17.83Z" style="fill:#92E3A9;stroke:#263238;stroke-linecap:round;stroke-linejoin:round"></path></clipPath><clipPath id="freepik--clip-path-2--inject-31"><path d="M261.16,407.57a8.14,8.14,0,0,1-3.4-.93c-17-8.87-30.22-23.53-38.18-34.05A125.73,125.73,0,0,1,211.05,360l4.08-17.48s3.84,10,19.27,19.83,33.76,13.07,39.69,23C279.34,394,270.09,408,261.16,407.57Z" style="fill:#fff;stroke:#263238;stroke-linecap:round;stroke-linejoin:round"></path></clipPath><clipPath id="freepik--clip-path-3--inject-31"><path d="M306.56,382.09s-6.31-.19-14.75.09c-12.76.4-30.39,1.84-38.45,6.53l-.38-.13L245.6,386l-.15-.22c-1.36-2-12.33-17.75-28-24.16l-22.16-61.92s23,1,35.57,21.78l6.31,2.28s37.55-11.12,58.57-7.12Z" style="fill:#92E3A9;stroke:#263238;stroke-linecap:round;stroke-linejoin:round"></path></clipPath><clipPath id="freepik--clip-path-4--inject-31"><path d="M354.81,427.87c-6.35,1.73-13.25-9.43-21.67-21.61h0c-5.56-8-11.78-16.53-18.93-22-.57-.43-1.15-.85-1.73-1.25l4.18-21c8.68,4.55,14.06,11.84,23.07,19.33,14.5,12.07,27.35,19.48,30.91,24.82S365.69,424.9,354.81,427.87Z" style="fill:#fff;stroke:#263238;stroke-linecap:round;stroke-linejoin:round"></path></clipPath><clipPath id="freepik--clip-path-5--inject-31"><path d="M319,382.18a3.47,3.47,0,0,1-2,1.62,7,7,0,0,1-.69.23l-.19,0c-6.71,1.75-21.81-1.89-21.81-1.89s-9.89-4.7-10.49-5.81a27.22,27.22,0,0,1-1.11-2.7l-.27-.79s-3.56-2-4-3.56-1.19-2,1-2.28,14,0,14,0l-12.85-5.24s-8.51-4.29-9.3-5.8-1.78-2.51,2.57-1.91,13.85,3.36,13.85,3.36L295.2,359l-7.44-3.17s-14.64-1.77-11.87-6.32h8.31a85.79,85.79,0,0,1,14,1.78c2.42.74,18.42,10.68,18.42,10.68" style="fill:#fff;stroke:#263238;stroke-linecap:round;stroke-linejoin:round"></path></clipPath><clipPath id="freepik--clip-path-6--inject-31"><path d="M136.78,417.62l36.62,11,67-15.29S199.48,401.71,199.1,402,136.78,417.62,136.78,417.62Z" style="fill:#92E3A9;stroke:#263238;stroke-linecap:round;stroke-linejoin:round"></path></clipPath><clipPath id="freepik--clip-path-7--inject-31"><path d="M137.31,404.72c-2.57.18-3.21,9.44-.53,12.9l59.16-12.28,4.74-11.22Z" style="fill:#92E3A9;stroke:#263238;stroke-linecap:round;stroke-linejoin:round"></path></clipPath><clipPath id="freepik--clip-path-8--inject-31"><path d="M139.2,406a8.82,8.82,0,0,1,.45,11A10.41,10.41,0,0,1,139.2,406Z" style="fill:#263238;stroke:#263238;stroke-linecap:round;stroke-linejoin:round"></path></clipPath><clipPath id="freepik--clip-path-9--inject-31"><polygon points="276.07 420.62 340.02 423.24 333.79 445.25 255.12 442.25 276.07 420.62" style="fill:#fff;stroke:#263238;stroke-linecap:round;stroke-linejoin:round"></polygon></clipPath></defs><g id="freepik--Earth--inject-31"><path d="M240.27,211.61a64.17,64.17,0,0,1-4.63,7.48A63,63,0,0,1,155.05,238c-1.39-.73-2.75-1.51-4.05-2.33s-2.57-1.66-3.79-2.56c-1.48-1.07-2.9-2.21-4.26-3.4l0,0a1.65,1.65,0,0,1-.24-.22l0,0a63.08,63.08,0,1,1,97.61-17.83Z" style="fill:#92E3A9"></path><g style="clip-path:url(#freepik--clip-path--inject-31)"><g style="opacity:0.6000000000000001"><path d="M240.27,211.61a64.17,64.17,0,0,1-4.63,7.48l-1.22-1-2.1-1.11-2.21-1.16.37-2.67-.12-2.41c-.13-2.41,1.61-.44,3-1.17a8.09,8.09,0,0,0,2.55-3s1-3.21.67-4.5a36.41,36.41,0,0,0-1.9-4.34l-3.58,5-3-.23L225.26,201l-.37-3.95-1.46-.76-.61-2.27-7.89-2.21-.9-1.58c-.9-1.58-4.53-2.39-4.53-2.39l.89-2.06,1.4-2.3c1.41-2.3,2.87,1.52,2.87,1.52l1.67.87,3.1-2.6.82-3.73,5.05.29a2.25,2.25,0,0,1,1.32-2.5c1.68-.66.94-4.31.3-5.66s-3-.26-3-.26-2.57-3.91-2.92-5.47,4.9-1,7.15-2.57,1.48-4.69.38-4.76,2.15-7.1,8.4-5.17c1.74.54,2.84.35,3.52-.25A63,63,0,0,1,240.27,211.61Z" style="fill:#fff"></path><path d="M196.54,184.56l-2.14,2.69s-.91-2.17-2.21-1l-2,1.78-1.45,4.06-2.6,1.68-1.59-.83-1.5-.8-1.63-.86-1.56,3-1.27,2.4a15.32,15.32,0,0,0,2.29,3.25l2.76,4.87L187,206.5a25.56,25.56,0,0,1,4.17.5l2.31,1.21-.82,5s-1.74,2.83-2.9,2.05l-1.17-.77-1.9,6.58-.08,3.62s-1.13.47-2.27.85-.42.18-2.81.92-2.2.71-4.14,1.26a26.13,26.13,0,0,0-4.75,2.22l.17,3.48-4.57.67-2.56-1.36.63-2.2.3-3.44-.35-2.57-1.1-2.27,3.08-2.79-.68-1.75-1.75-3.48-3.7,2-1.9,1-4.3-1.93-.47-2.61L154,208l-1.34-2.92-2.38-3.22-.6-2.77,1.34-2.54.71-1.34-2.19-2.95-.6-2.1-3.69-3.35s1.07-.07.83-1.56,2.11-4,2.11-4c1.33.7,5.32,3.48,5.32,3.48l3.49.48s.7,0,1.38-1.32a18.69,18.69,0,0,1,2.78-3.33s-1.61-5.59-.46-6.34,2.32-4.41,2.32-4.41l.92-1.75s-2.17-.95-2.58-2.1-5.76.38-5.76.38l-3.69,2.56L149,171.15l-1.26,2.39s-2.57-3.09-2.58-1.36a24.54,24.54,0,0,1-1.16,5.21s.53.28-.17,1.62-1.46,1.27-3,1.46a38.45,38.45,0,0,1-6-.41s-1,3.7-.31,4.34l.68.62s-1.07,2.69-2.13,2.13l-2.58-1.36-3.61,1.46-4,4.42-.89-.18a63.08,63.08,0,0,1,52.49-71.6c.23,1,.48,1.94.48,1.94l-1,4.94-1.28,2.44-1.1,2.09-1.55,2.94L174,137.9l-.85,4.33L171,143.58l-.62,3.25,3.69,7.21,1,2.83a9.91,9.91,0,0,0-.89,4.32s.45,2.7,2.42,3.77,4.56,2.33,4.56,2.33l-.21,4-.89,1,1.48,4.31c4.51,1.77,4.08,3.25,4.51,1.77l.44-1.47,3.07-1.11,3.91,4.67a2.71,2.71,0,0,1,2.3,1.22C196.91,183.12,198.69,181.87,196.54,184.56Z" style="fill:#fff"></path><path d="M143.54,219.39c.11,1.42-1.69,3.2-1.69,3.2l1.47.77.45,4-1.11,2.12a62.82,62.82,0,0,1-17.45-25.62l.8-4.24,3.53-.5s3.16-2.1,4.56-1.54,2.68,4,2.68,4,1,4.64.87,4.55h0l-.06,0,.08,0,1.44.76.41,1.83-2,3.8h-3.22s-.64-.34-.7,1.33a4.06,4.06,0,0,0,1.67,2.93l3.48-.89.93-3.6,3.42-.67s-.49,2.21.31,2.63l.81.43.48,2.64A2.37,2.37,0,0,0,143.54,219.39Z" style="fill:#fff"></path><path d="M160.08,225.05c-.31-.86-.44-1.61-2.57-2.73s-2-.72-2.84.21a3.07,3.07,0,0,1-3.18,1.13c-1.4-.31-.67,1.27-.67,1.27l.34,4.27-3.95,3.9q1.83,1.35,3.79,2.56l.84-2.58L158.4,235c-1.39-.41-.57-2.31-.57-2.31l-1.4-.74S160.39,225.89,160.08,225.05Z" style="fill:#fff"></path><path d="M201.4,202.85l-2.15-2.17-2.46.77-1,2-.75,1.44,1,2,2,2.43,1.14-2.18s3.17,0,4.83-1.83S201.4,202.85,201.4,202.85Z" style="fill:#fff"></path><path d="M195.08,193.06l4,2.1.16-.94a5.43,5.43,0,0,1,1.08-2.05l-3.06-3.24Z" style="fill:#fff"></path><path d="M193.72,239.61l-1.15-1.69-1.34-.7h-4.09l-2.33,4.42s-2.23-.3-5.16-.56-2.21.95-2.21.95l-.76,2.78a63.24,63.24,0,0,0,22.14-1.19A28,28,0,0,0,196.2,242Z" style="fill:#fff"></path></g></g><path d="M240.27,211.61a64.17,64.17,0,0,1-4.63,7.48A63,63,0,0,1,155.05,238c-1.39-.73-2.75-1.51-4.05-2.33s-2.57-1.66-3.79-2.56c-1.48-1.07-2.9-2.21-4.26-3.4l0,0a1.65,1.65,0,0,1-.24-.22l0,0a63.08,63.08,0,1,1,97.61-17.83Z" style="fill:none;stroke:#263238;stroke-linecap:round;stroke-linejoin:round"></path><path d="M198.82,243.62a63.24,63.24,0,0,1-22.14,1.19l.76-2.78s-.72-1.21,2.21-.95,5.16.56,5.16.56l2.33-4.42h4.09l1.34.7,1.15,1.69L196.2,242A28,28,0,0,1,198.82,243.62Z" style="fill:none;stroke:#263238;stroke-linecap:round;stroke-linejoin:round"></path><path d="M240.49,153.2c-.68.6-1.78.79-3.52.25-6.25-1.93-9.49,5.09-8.4,5.17s1.86,3.24-.38,4.76-7.5,1-7.15,2.57,2.92,5.47,2.92,5.47,2.3-1.08,2.95.26,1.39,5-.29,5.66a2.25,2.25,0,0,0-1.32,2.5l-5.05-.29-.82,3.73-3.1,2.6-1.67-.87s-1.46-3.82-2.87-1.52l-1.4,2.3-.89,2.06s3.63.81,4.53,2.39l.9,1.58,7.89,2.21.61,2.27,1.46.76.37,3.95,2.94,1.54,3,.23,3.58-5a36.41,36.41,0,0,1,1.9,4.34c.35,1.29-.67,4.5-.67,4.5a8.09,8.09,0,0,1-2.55,3c-1.43.73-3.18-1.24-3,1.17l.12,2.41-.37,2.67,2.21,1.16,2.1,1.11,1.22,1" style="fill:none;stroke:#263238;stroke-linecap:round;stroke-linejoin:round"></path><path d="M122.07,191.49l.89.18,4-4.42,3.61-1.46,2.58,1.36c1.06.56,2.13-2.13,2.13-2.13l-.68-.62c-.69-.64.31-4.34.31-4.34a38.45,38.45,0,0,0,6,.41c1.58-.19,2.33-.13,3-1.46s.17-1.62.17-1.62a24.54,24.54,0,0,0,1.16-5.21c0-1.73,2.58,1.36,2.58,1.36l1.26-2.39,2.82-2.24,3.69-2.56s5.35-1.54,5.76-.38,2.58,2.1,2.58,2.1l-.92,1.75s-1.18,3.64-2.32,4.41.46,6.34.46,6.34a18.69,18.69,0,0,0-2.78,3.33c-.7,1.34-1.38,1.32-1.38,1.32l-3.49-.48s-4-2.78-5.32-3.48c0,0-2.35,2.51-2.11,4s-.83,1.56-.83,1.56l3.69,3.35.6,2.1,2.19,2.95-.71,1.34-1.34,2.54.6,2.77,2.38,3.22L154,208l1.46,4.71.47,2.61,4.3,1.93,1.9-1,3.7-2,1.75,3.48.68,1.75-3.08,2.79,1.1,2.27.35,2.57-.3,3.44-.63,2.2,2.56,1.36,4.57-.66-.17-3.49a26.13,26.13,0,0,1,4.75-2.22c1.94-.55,1.75-.52,4.14-1.26s1.66-.54,2.81-.92,2.27-.85,2.27-.85l.08-3.62,1.9-6.58,1.17.77c1.16.78,2.9-2.05,2.9-2.05l.82-5L191.14,207a25.56,25.56,0,0,0-4.17-.5l-3.29-1.73-2.76-4.87a15.32,15.32,0,0,1-2.29-3.25l1.27-2.4,1.56-3,1.63.86,1.5.8,1.59.83,2.6-1.68,1.45-4.06,2-1.78c1.3-1.18,2.21,1,2.21,1l2.14-2.69c2.15-2.69.37-1.44-.73-2.82a2.71,2.71,0,0,0-2.3-1.22l-3.91-4.67L186.53,177l-.44,1.47c-.43,1.48,0,0-4.51-1.77l-1.48-4.31.89-1,.21-4s-2.59-1.27-4.56-2.33-2.42-3.77-2.42-3.77a9.91,9.91,0,0,1,.89-4.32l-1-2.83-3.69-7.21.62-3.25,2.15-1.35.85-4.33-3.86-3.66,1.55-2.94,1.1-2.09,1.28-2.44,1-4.94s-.25-.92-.48-1.94" style="fill:none;stroke:#263238;stroke-linecap:round;stroke-linejoin:round"></path><path d="M143,229.7a1.62,1.62,0,0,0-.26-.24l0,0,1.11-2.12-.45-4-1.47-.77s1.8-1.78,1.69-3.2a2.37,2.37,0,0,1,1.13-2.13l-.48-2.64-.81-.43c-.8-.42-.31-2.63-.31-2.63l-3.42.67-.93,3.6-3.48.89a4.06,4.06,0,0,1-1.67-2.93c.06-1.67.7-1.33.7-1.33h3.22l2-3.8-.41-1.83-1.44-.76" style="fill:none;stroke:#263238;stroke-linecap:round;stroke-linejoin:round"></path><path d="M137.63,206.05h0c.16.09-.87-4.55-.87-4.55s-1.28-3.39-2.68-4-4.56,1.54-4.56,1.54l-3.53.5-.8,4.24" style="fill:none;stroke:#263238;stroke-linecap:round;stroke-linejoin:round"></path><path d="M151.84,233.08l-.84,2.58q-2-1.22-3.79-2.56l3.95-3.9-.34-4.27s-.73-1.58.67-1.27a3.07,3.07,0,0,0,3.18-1.13c.82-.93.72-1.33,2.84-.21s2.26,1.87,2.57,2.73-3.65,6.93-3.65,6.93l1.4.74s-.82,1.9.57,2.31Z" style="fill:none;stroke:#263238;stroke-linecap:round;stroke-linejoin:round"></path><path d="M196.79,201.45l2.46-.77,2.15,2.17s4.25.55,2.59,2.4-4.83,1.83-4.83,1.83L198,209.26l-2-2.43-1-2,.75-1.44Z" style="fill:none;stroke:#263238;stroke-linecap:round;stroke-linejoin:round"></path><path d="M200.32,192.17a5.43,5.43,0,0,0-1.08,2.05l-.16.94-4-2.1,2.18-4.13Z" style="fill:none;stroke:#263238;stroke-linecap:round;stroke-linejoin:round"></path></g></svg>