<svg xmlns="http://www.w3.org/2000/svg" viewBox="0 0 500 500"><g id="freepik--Floor--inject-107"><polygon points="41.36 458.9 93.52 458.66 145.68 458.57 250 458.41 354.32 458.57 406.48 458.66 458.64 458.9 406.48 459.15 354.32 459.24 250 459.4 145.68 459.24 93.52 459.15 41.36 458.9" style="fill:#263238"></polygon></g><g id="freepik--Smoke--inject-107"><g style="opacity:0.6000000000000001"><path d="M231.45,408.39a4.2,4.2,0,1,1-4.2-4.2A4.2,4.2,0,0,1,231.45,408.39Z" style="fill:#FFC727;opacity:0.6000000000000001"></path><path d="M204.81,427.08a2.05,2.05,0,1,1-2.05-2.05A2,2,0,0,1,204.81,427.08Z" style="fill:#FFC727;opacity:0.6000000000000001"></path><path d="M330.51,435.35a2,2,0,1,1-2-2.05A2,2,0,0,1,330.51,435.35Z" style="fill:#FFC727;opacity:0.6000000000000001"></path></g><path d="M160.46,456.12a2.78,2.78,0,0,0,2.77,2.78H336.77a2.79,2.79,0,0,0,0-5.57,2.86,2.86,0,0,0-.67.08,5.48,5.48,0,0,0-9.41-3.83l-.05,0c0-.34.05-.68.05-1a10.36,10.36,0,0,0-10.37-10.36,10.24,10.24,0,0,0-4.55,1.05A7.4,7.4,0,0,0,297.49,437a10.32,10.32,0,0,0-8.76-4.84,10.72,10.72,0,0,0-2,.19,13.79,13.79,0,0,0,.21-2.42,14,14,0,0,0-23.18-10.61,1.38,1.38,0,0,0-.17-.29,13.62,13.62,0,0,0-27.22,0,1.38,1.38,0,0,0-.17.29A14,14,0,0,0,213,429.91a13.79,13.79,0,0,0,.21,2.42,10.72,10.72,0,0,0-2-.19,10.32,10.32,0,0,0-8.76,4.84,7.4,7.4,0,0,0-14.28,2.25,10.37,10.37,0,0,0-14.92,9.31c0,.34,0,.68.05,1l-.05,0a5.48,5.48,0,0,0-9.41,3.83,2.86,2.86,0,0,0-.67-.08A2.79,2.79,0,0,0,160.46,456.12Z" style="fill:#FFC727;opacity:0.6000000000000001"></path><g style="opacity:0.6000000000000001"><path d="M436.84,432.6a5.93,5.93,0,1,0,5.93-5.93A5.93,5.93,0,0,0,436.84,432.6Z" style="fill:#FFC727;opacity:0.6000000000000001"></path><path d="M427.4,422.78a2.89,2.89,0,1,0,2.89-2.89A2.89,2.89,0,0,0,427.4,422.78Z" style="fill:#FFC727;opacity:0.6000000000000001"></path><path d="M253.34,409.87a2.89,2.89,0,1,0,2.89-2.89A2.89,2.89,0,0,0,253.34,409.87Z" style="fill:#FFC727;opacity:0.6000000000000001"></path></g><path d="M454.72,455a3.93,3.93,0,0,1-3.92,3.93H206a3.93,3.93,0,1,1,.93-7.74,7.74,7.74,0,0,1,13.28-5.41l.07,0c0-.48-.07-1-.07-1.44a14.62,14.62,0,0,1,21-13.13A10.43,10.43,0,0,1,261.4,428a14.58,14.58,0,0,1,12.37-6.83,15.16,15.16,0,0,1,2.79.26,19.14,19.14,0,0,1-.3-3.41A19.77,19.77,0,0,1,309,403a2.1,2.1,0,0,1,.24-.41,19.22,19.22,0,0,1,38.4,0,2.1,2.1,0,0,1,.24.41,19.77,19.77,0,0,1,32.7,15,19.14,19.14,0,0,1-.3,3.41,15.16,15.16,0,0,1,2.79-.26A14.57,14.57,0,0,1,395.4,428a10.43,10.43,0,0,1,20.14,3.17,14.62,14.62,0,0,1,21,13.13c0,.49,0,1-.07,1.44l.07,0a7.74,7.74,0,0,1,13.28,5.41,3.89,3.89,0,0,1,4.85,3.81Z" style="fill:#FFC727;opacity:0.6000000000000001"></path><g style="opacity:0.6000000000000001"><path d="M145.43,387.65a5.93,5.93,0,1,1-5.93-5.93A5.93,5.93,0,0,1,145.43,387.65Z" style="fill:#FFC727;opacity:0.6000000000000001"></path><path d="M107.84,414a2.89,2.89,0,1,1-2.89-2.89A2.89,2.89,0,0,1,107.84,414Z" style="fill:#FFC727;opacity:0.6000000000000001"></path><path d="M285.18,425.67a2.89,2.89,0,1,1-2.89-2.89A2.89,2.89,0,0,1,285.18,425.67Z" style="fill:#FFC727;opacity:0.6000000000000001"></path></g><path d="M45.28,455a3.93,3.93,0,0,0,3.92,3.93H294a3.93,3.93,0,1,0-.93-7.74,7.74,7.74,0,0,0-13.28-5.41l-.07,0c0-.48.07-1,.07-1.44a14.62,14.62,0,0,0-21.05-13.13A10.43,10.43,0,0,0,238.6,428a14.58,14.58,0,0,0-12.37-6.83,15.16,15.16,0,0,0-2.79.26,19.14,19.14,0,0,0,.3-3.41A19.77,19.77,0,0,0,191,403a2.1,2.1,0,0,0-.24-.41,19.22,19.22,0,0,0-38.4,0,2.1,2.1,0,0,0-.24.41,19.77,19.77,0,0,0-32.7,15,19.14,19.14,0,0,0,.3,3.41,15.16,15.16,0,0,0-2.79-.26A14.57,14.57,0,0,0,104.6,428a10.43,10.43,0,0,0-20.14,3.17,14.62,14.62,0,0,0-21,13.13c0,.49,0,1,.07,1.44l-.07,0a7.74,7.74,0,0,0-13.28,5.41A3.89,3.89,0,0,0,45.28,455Z" style="fill:#FFC727;opacity:0.6000000000000001"></path><path d="M392.74,458.9H107.26c93.89,0,129.18-66.84,132.27-111,2.76-39.39,2.1-88.4,2.1-88.4h16.73s-.65,49,2.1,88.4C263.56,392.06,298.84,458.9,392.74,458.9Z" style="fill:#FFC727;opacity:0.6000000000000001"></path><path d="M379.74,458.9H120.26c93.89,0,122.18-66.84,125.27-111,2.76-39.39,2.1-88.4,2.1-88.4h4.73s-.65,49,2.1,88.4C257.56,392.06,285.84,458.9,379.74,458.9Z" style="fill:#FFC727;opacity:0.6000000000000001"></path><polygon points="258.42 380.2 261.5 380.77 262.19 384.02 262.87 380.77 265.95 380.2 262.89 379.45 262.19 376.39 261.48 379.45 258.42 380.2" style="fill:#fff"></polygon><polygon points="70.92 446.57 74 447.14 74.69 450.38 75.38 447.14 78.46 446.57 75.39 445.82 74.69 442.75 73.99 445.82 70.92 446.57" style="fill:#fff"></polygon><polygon points="371.12 419.66 374.2 420.23 374.89 423.47 375.58 420.23 378.66 419.65 375.59 418.91 374.89 415.84 374.19 418.91 371.12 419.66" style="fill:#fff"></polygon><polygon points="341.79 436.23 343.51 436.55 343.89 438.37 344.28 436.55 346 436.23 344.29 435.81 343.89 434.1 343.5 435.81 341.79 436.23" style="fill:#fff"></polygon><polygon points="264.65 417.11 266.37 417.43 266.76 419.24 267.14 417.43 268.86 417.11 267.15 416.69 266.76 414.98 266.36 416.69 264.65 417.11" style="fill:#fff"></polygon><polygon points="334.1 450.76 335.82 451.08 336.21 452.89 336.59 451.08 338.31 450.76 336.6 450.34 336.21 448.63 335.82 450.34 334.1 450.76" style="fill:#fff"></polygon><polygon points="290.6 446.5 292.32 446.81 292.7 448.63 293.09 446.81 294.81 446.49 293.1 446.08 292.7 444.36 292.31 446.08 290.6 446.5" style="fill:#fff"></polygon><polygon points="98.47 448.63 100.19 448.95 100.58 450.76 100.96 448.95 102.68 448.63 100.97 448.21 100.58 446.5 100.18 448.21 98.47 448.63" style="fill:#fff"></polygon><polygon points="296.46 406.32 298.18 406.64 298.57 408.46 298.95 406.64 300.67 406.32 298.96 405.9 298.57 404.19 298.17 405.9 296.46 406.32" style="fill:#fff"></polygon><polygon points="354 406.32 355.72 406.64 356.1 408.46 356.49 406.64 358.21 406.32 356.49 405.9 356.1 404.19 355.71 405.9 354 406.32" style="fill:#fff"></polygon><path d="M245.09,445.57a.5.5,0,0,1,0,1A.5.5,0,0,1,245.09,445.57Z" style="fill:#fff"></path><path d="M309.86,392.78a.5.5,0,0,1,0,1A.5.5,0,0,1,309.86,392.78Z" style="fill:#fff"></path><path d="M352.44,448a.5.5,0,0,1,0,1A.5.5,0,0,1,352.44,448Z" style="fill:#fff"></path><path d="M320.81,441.15a.5.5,0,0,1,0,1A.5.5,0,0,1,320.81,441.15Z" style="fill:#fff"></path><path d="M257.59,436.6a.35.35,0,0,1,0,.7A.35.35,0,0,1,257.59,436.6Z" style="fill:#fff"></path><path d="M260.82,351.48a.35.35,0,0,1,0,.7A.35.35,0,0,1,260.82,351.48Z" style="fill:#fff"></path><path d="M301.21,431.3a.36.36,0,0,1,0,.71A.36.36,0,0,1,301.21,431.3Z" style="fill:#fff"></path><path d="M333.14,424.4a.36.36,0,0,1,0,.71A.36.36,0,0,1,333.14,424.4Z" style="fill:#fff"></path><path d="M278.51,425.85a1,1,0,0,1,0,1.91A1,1,0,0,1,278.51,425.85Z" style="fill:#fff"></path><path d="M328.62,421.16a1,1,0,0,1,0,1.91A1,1,0,0,1,328.62,421.16Z" style="fill:#fff"></path><polygon points="240.43 289.19 243.51 289.76 244.2 293.01 244.89 289.76 247.97 289.19 244.9 288.44 244.2 285.38 243.5 288.44 240.43 289.19" style="fill:#fff"></polygon><polygon points="216.35 437.45 218.08 437.77 218.46 439.59 218.84 437.77 220.57 437.45 218.85 437.04 218.46 435.32 218.07 437.04 216.35 437.45" style="fill:#fff"></polygon><polygon points="249.79 280.44 251.51 280.76 251.9 282.57 252.28 280.76 254 280.44 252.29 280.02 251.9 278.31 251.5 280.02 249.79 280.44" style="fill:#fff"></polygon><path d="M153.84,409.52a.5.5,0,0,1,0,1A.5.5,0,0,1,153.84,409.52Z" style="fill:#fff"></path><path d="M227,449.23a.5.5,0,0,1,0,1A.5.5,0,0,1,227,449.23Z" style="fill:#fff"></path><path d="M195.38,442.37a.5.5,0,0,1,0,1A.5.5,0,0,1,195.38,442.37Z" style="fill:#fff"></path><path d="M175.78,432.53a.35.35,0,0,1,0,.7A.35.35,0,0,1,175.78,432.53Z" style="fill:#fff"></path><path d="M207.71,425.63a.35.35,0,0,1,0,.7A.35.35,0,0,1,207.71,425.63Z" style="fill:#fff"></path><path d="M231.24,363.79a.35.35,0,0,1,0,.7A.35.35,0,0,1,231.24,363.79Z" style="fill:#fff"></path><path d="M203.19,422.38a1,1,0,0,1,0,1.92A1,1,0,0,1,203.19,422.38Z" style="fill:#fff"></path><path d="M257.25,302.12a1,1,0,0,1,0,1.91A1,1,0,0,1,257.25,302.12Z" style="fill:#fff"></path><path d="M139.57,444.61a1,1,0,0,1,0,1.92A1,1,0,0,1,139.57,444.61Z" style="fill:#fff"></path><polygon points="210.47 409.65 212.2 409.97 212.58 411.78 212.97 409.97 214.69 409.65 212.97 409.23 212.58 407.52 212.19 409.23 210.47 409.65" style="fill:#fff"></polygon><polygon points="407.38 446.57 409.1 446.89 409.49 448.7 409.87 446.89 411.59 446.57 409.88 446.15 409.49 444.43 409.1 446.15 407.38 446.57" style="fill:#fff"></polygon><path d="M221.12,421.42a.5.5,0,0,1,0,1A.5.5,0,0,1,221.12,421.42Z" style="fill:#fff"></path><path d="M236.27,394.5a.5.5,0,0,1,0,1A.5.5,0,0,1,236.27,394.5Z" style="fill:#fff"></path><polygon points="243.76 327.77 245.48 328.09 245.87 329.9 246.25 328.09 247.97 327.77 246.26 327.35 245.87 325.64 245.48 327.35 243.76 327.77" style="fill:#fff"></polygon><path d="M292.35,403.69a.5.5,0,0,1,0,1A.5.5,0,0,1,292.35,403.69Z" style="fill:#fff"></path><path d="M270.65,395.21a.35.35,0,0,1,0,.7A.35.35,0,0,1,270.65,395.21Z" style="fill:#fff"></path><polygon points="153.49 421.42 155.21 421.74 155.6 423.56 155.98 421.74 157.7 421.42 155.99 421 155.6 419.29 155.21 421 153.49 421.42" style="fill:#fff"></polygon><polygon points="424.86 452.89 426.59 453.21 426.97 455.03 427.36 453.21 429.08 452.89 427.36 452.48 426.97 450.76 426.58 452.48 424.86 452.89" style="fill:#fff"></polygon><path d="M128.73,421.42a.5.5,0,0,1,0,1A.5.5,0,0,1,128.73,421.42Z" style="fill:#fff"></path><path d="M161.79,424.05a.36.36,0,0,1,0,.71A.36.36,0,0,1,161.79,424.05Z" style="fill:#fff"></path><path d="M210.41,399a1,1,0,0,1,0,1.92A1,1,0,0,1,210.41,399Z" style="fill:#fff"></path><path d="M348.82,410.83a1,1,0,0,1,0,1.91A1,1,0,0,1,348.82,410.83Z" style="fill:#fff"></path></g><g id="freepik--Moon--inject-107"><circle cx="401.64" cy="104.93" r="19.45" style="fill:#ebebeb"></circle><path d="M408.72,93.39A4.33,4.33,0,0,1,408,96a5.15,5.15,0,0,1-2.11,1.87,3.84,3.84,0,0,1-2.86.24,4,4,0,0,1-2.18-1.67,5.73,5.73,0,0,0,2.34,1,3.17,3.17,0,0,0,1.19,0,3.73,3.73,0,0,0,1.13-.36,5.86,5.86,0,0,0,.55-.3,4.46,4.46,0,0,0,.5-.35,5.24,5.24,0,0,0,.91-.85A6.58,6.58,0,0,0,408.72,93.39Z" style="fill:#c7c7c7"></path><path d="M401.73,94.51a2.82,2.82,0,0,1,.4-1.86,3.5,3.5,0,0,1,1.47-1.33,2.65,2.65,0,0,1,2-.14,2.55,2.55,0,0,1,1.45,1.24,4.3,4.3,0,0,0-1.61-.6,2.67,2.67,0,0,0-1.5.26A4.62,4.62,0,0,0,401.73,94.51Z" style="fill:#c7c7c7"></path><path d="M401.64,114.07a2.64,2.64,0,0,1,.05,1.86,3.27,3.27,0,0,1-1.12,1.57,2.56,2.56,0,0,1-1.92.52,2.61,2.61,0,0,1-1.63-.9,4.74,4.74,0,0,0,1.66.24,2.57,2.57,0,0,0,1.37-.53,4.08,4.08,0,0,0,1-1.16A4.74,4.74,0,0,0,401.64,114.07Z" style="fill:#c7c7c7"></path><path d="M397.61,116.28a1.72,1.72,0,0,1-.13-1.3,2.22,2.22,0,0,1,.78-1.14,1.76,1.76,0,0,1,1.39-.35,1.65,1.65,0,0,1,1.11.72,3.79,3.79,0,0,0-1.14-.06,1.87,1.87,0,0,0-.84.36A3.35,3.35,0,0,0,397.61,116.28Z" style="fill:#c7c7c7"></path><path d="M394.63,96.58a1.74,1.74,0,0,1,.56,1.25,1.94,1.94,0,0,1-.55,1.37,1.72,1.72,0,0,1-1.43.49A2,2,0,0,1,392,99.1,5.72,5.72,0,0,0,393.2,99a1.43,1.43,0,0,0,.83-.42,1.93,1.93,0,0,0,.5-.84A3.66,3.66,0,0,0,394.63,96.58Z" style="fill:#c7c7c7"></path><path d="M392.22,98.47a1.15,1.15,0,0,1-.48-.87,1.34,1.34,0,0,1,.38-1,1.26,1.26,0,0,1,1.9.17,6,6,0,0,0-.82.16,1,1,0,0,0-.47.27,1.62,1.62,0,0,0-.33.49A3,3,0,0,0,392.22,98.47Z" style="fill:#c7c7c7"></path><path d="M408.15,117.08a1.78,1.78,0,0,1-1.08.84,1.91,1.91,0,0,1-1.47-.2,1.73,1.73,0,0,1-.82-1.26,2.09,2.09,0,0,1,.27-1.33,6.74,6.74,0,0,0,.38,1.15,1.49,1.49,0,0,0,.61.71,2,2,0,0,0,.94.27A3.71,3.71,0,0,0,408.15,117.08Z" style="fill:#c7c7c7"></path><path d="M405.73,115.2a1.1,1.1,0,0,1,.71-.68,1.35,1.35,0,0,1,1.09.13,1.18,1.18,0,0,1,.59.94,1.26,1.26,0,0,1-.29.94,6.27,6.27,0,0,0-.35-.76,1.09,1.09,0,0,0-.38-.39,1.44,1.44,0,0,0-.56-.2A2.81,2.81,0,0,0,405.73,115.2Z" style="fill:#c7c7c7"></path><path d="M414.81,103.39a1.72,1.72,0,0,1-.42,1.3,1.86,1.86,0,0,1-1.32.66,1.68,1.68,0,0,1-1.39-.58,2,2,0,0,1-.52-1.25,6.45,6.45,0,0,0,.95.75,1.6,1.6,0,0,0,.91.24,2,2,0,0,0,.93-.31A3.4,3.4,0,0,0,414.81,103.39Z" style="fill:#c7c7c7"></path><path d="M411.75,103.2a1.13,1.13,0,0,1,.21-1,1.34,1.34,0,0,1,1-.51,1.2,1.2,0,0,1,1,.45,1.25,1.25,0,0,1,.29.93,6.8,6.8,0,0,0-.72-.42,1,1,0,0,0-.54-.11,1.42,1.42,0,0,0-.57.15A2.83,2.83,0,0,0,411.75,103.2Z" style="fill:#c7c7c7"></path><path d="M389.05,107.8a1.73,1.73,0,0,1-.42,1.3,1.88,1.88,0,0,1-1.32.66,1.71,1.71,0,0,1-1.39-.58,2,2,0,0,1-.52-1.25,6.49,6.49,0,0,0,1,.74,1.51,1.51,0,0,0,.9.24,2,2,0,0,0,.93-.3A3.83,3.83,0,0,0,389.05,107.8Z" style="fill:#c7c7c7"></path><path d="M386,107.61a1.14,1.14,0,0,1,.21-1,1.33,1.33,0,0,1,1-.5,1.18,1.18,0,0,1,1,.45,1.27,1.27,0,0,1,.29.93,7.1,7.1,0,0,0-.72-.43,1.18,1.18,0,0,0-.54-.11,1.61,1.61,0,0,0-.57.15A3.26,3.26,0,0,0,386,107.61Z" style="fill:#c7c7c7"></path><path d="M415.4,118.69a19.44,19.44,0,0,1-33-11.28,18,18,0,1,0,21.2-21.82,19.44,19.44,0,0,1,11.84,33.1Z" style="fill:#dbdbdb"></path></g><g id="freepik--Stars--inject-107"><polygon points="368.63 327.54 372.74 328.3 373.66 332.64 374.57 328.3 378.69 327.54 374.59 326.54 373.66 322.45 372.72 326.54 368.63 327.54" style="fill:#a6a6a6"></polygon><polygon points="201.72 351.48 205.83 352.24 206.75 356.57 207.67 352.24 211.78 351.48 207.69 350.48 206.75 346.38 205.81 350.48 201.72 351.48" style="fill:#a6a6a6"></polygon><polygon points="324.78 254.71 328.89 255.47 329.81 259.81 330.73 255.47 334.84 254.71 330.74 253.71 329.81 249.62 328.87 253.71 324.78 254.71" style="fill:#a6a6a6"></polygon><polygon points="424.42 300.15 426.71 300.57 427.23 303 427.74 300.57 430.04 300.15 427.75 299.59 427.23 297.3 426.7 299.59 424.42 300.15" style="fill:#a6a6a6"></polygon><polygon points="354.36 380.2 356.65 380.63 357.17 383.05 357.68 380.63 359.98 380.2 357.69 379.64 357.17 377.36 356.64 379.64 354.36 380.2" style="fill:#a6a6a6"></polygon><polygon points="375.58 188.25 377.88 188.68 378.39 191.1 378.91 188.68 381.21 188.25 378.92 187.69 378.39 185.41 377.87 187.69 375.58 188.25" style="fill:#a6a6a6"></polygon><polygon points="216.35 372.8 218.65 373.22 219.17 375.64 219.68 373.22 221.98 372.8 219.69 372.24 219.17 369.95 218.64 372.24 216.35 372.8" style="fill:#a6a6a6"></polygon><polygon points="115.75 384.57 118.05 384.99 118.56 387.41 119.08 384.99 121.38 384.57 119.09 384.01 118.56 381.72 118.04 384.01 115.75 384.57" style="fill:#a6a6a6"></polygon><polygon points="366.71 249.62 369.01 250.04 369.53 252.47 370.04 250.04 372.34 249.62 370.05 249.06 369.53 246.77 369 249.06 366.71 249.62" style="fill:#a6a6a6"></polygon><polygon points="315.37 110.55 317.67 110.97 318.18 113.4 318.69 110.97 320.99 110.55 318.7 109.99 318.18 107.7 317.66 109.99 315.37 110.55" style="fill:#a6a6a6"></polygon><polygon points="315.67 198.85 317.97 199.28 318.48 201.7 318.99 199.28 321.29 198.85 319 198.29 318.48 196 317.96 198.29 315.67 198.85" style="fill:#a6a6a6"></polygon><path d="M361.25,407.27a.67.67,0,0,1,0,1.33A.67.67,0,0,1,361.25,407.27Z" style="fill:#a6a6a6"></path><path d="M341.91,239.72a.67.67,0,0,1,0,1.33A.67.67,0,0,1,341.91,239.72Z" style="fill:#a6a6a6"></path><path d="M170,332a.67.67,0,0,1,0,1.33A.67.67,0,0,1,170,332Z" style="fill:#a6a6a6"></path><path d="M356.53,304.29a.67.67,0,0,1,0,1.33A.67.67,0,0,1,356.53,304.29Z" style="fill:#a6a6a6"></path><path d="M377.94,395.29a.47.47,0,0,1,0,.94A.47.47,0,0,1,377.94,395.29Z" style="fill:#a6a6a6"></path><path d="M378.41,145.86a.48.48,0,0,1,0,.95A.48.48,0,0,1,378.41,145.86Z" style="fill:#a6a6a6"></path><path d="M330.36,291.15a.47.47,0,0,1,0,.94A.47.47,0,0,1,330.36,291.15Z" style="fill:#a6a6a6"></path><path d="M300.06,283.86a1.28,1.28,0,0,1,0,2.55A1.28,1.28,0,0,1,300.06,283.86Z" style="fill:#a6a6a6"></path><polygon points="88.58 111.2 92.69 111.96 93.61 116.29 94.53 111.96 98.64 111.19 94.55 110.19 93.61 106.1 92.67 110.19 88.58 111.2" style="fill:#a6a6a6"></polygon><polygon points="175.96 57.94 178.26 58.36 178.77 60.79 179.29 58.36 181.58 57.94 179.3 57.38 178.77 55.09 178.25 57.38 175.96 57.94" style="fill:#a6a6a6"></polygon><path d="M182.51,139.92a.67.67,0,0,1,0,1.33A.67.67,0,0,1,182.51,139.92Z" style="fill:#a6a6a6"></path><path d="M110.12,374.2a.67.67,0,0,1,0,1.33A.67.67,0,0,1,110.12,374.2Z" style="fill:#a6a6a6"></path><path d="M127.27,232.47a.67.67,0,0,1,0,1.33A.67.67,0,0,1,127.27,232.47Z" style="fill:#a6a6a6"></path><path d="M153.63,321.54a.47.47,0,0,1,0,.94A.47.47,0,0,1,153.63,321.54Z" style="fill:#a6a6a6"></path><path d="M280.4,360.89a.47.47,0,0,1,0,.94A.47.47,0,0,1,280.4,360.89Z" style="fill:#a6a6a6"></path><path d="M328.88,148.4a.47.47,0,0,1,0,.94A.47.47,0,0,1,328.88,148.4Z" style="fill:#a6a6a6"></path><path d="M235.67,298.14a1.28,1.28,0,0,1,0,2.55A1.28,1.28,0,0,1,235.67,298.14Z" style="fill:#a6a6a6"></path><path d="M374.29,151.4a1.28,1.28,0,0,1,0,2.56A1.28,1.28,0,0,1,374.29,151.4Z" style="fill:#a6a6a6"></path><path d="M76.82,320.26a1.28,1.28,0,0,1,0,2.55A1.28,1.28,0,0,1,76.82,320.26Z" style="fill:#a6a6a6"></path><polygon points="167.15 188.62 169.44 189.04 169.96 191.47 170.47 189.04 172.77 188.62 170.48 188.06 169.96 185.77 169.44 188.06 167.15 188.62" style="fill:#a6a6a6"></polygon><polygon points="274.78 335.49 277.08 335.91 277.59 338.33 278.1 335.91 280.4 335.49 278.11 334.93 277.59 332.64 277.07 334.93 274.78 335.49" style="fill:#a6a6a6"></polygon><path d="M329.26,375a.67.67,0,0,1,0,1.33A.67.67,0,0,1,329.26,375Z" style="fill:#a6a6a6"></path><path d="M349.48,339.1a.67.67,0,0,1,0,1.33A.67.67,0,0,1,349.48,339.1Z" style="fill:#a6a6a6"></path><polygon points="401.64 367.1 403.94 367.52 404.46 369.95 404.97 367.52 407.27 367.1 404.98 366.54 404.46 364.25 403.93 366.54 401.64 367.1" style="fill:#a6a6a6"></polygon><path d="M331.71,160.67a.67.67,0,0,1,0,1.34A.67.67,0,0,1,331.71,160.67Z" style="fill:#a6a6a6"></path><path d="M378,341.2a.47.47,0,0,1,0,.94A.47.47,0,0,1,378,341.2Z" style="fill:#a6a6a6"></path><polygon points="136.69 261.43 138.99 261.85 139.5 264.27 140.01 261.85 142.31 261.42 140.02 260.87 139.5 258.58 138.98 260.87 136.69 261.43" style="fill:#a6a6a6"></polygon><polygon points="69.96 206.6 72.26 207.03 72.77 209.45 73.28 207.03 75.58 206.6 73.29 206.04 72.77 203.75 72.25 206.04 69.96 206.6" style="fill:#a6a6a6"></polygon><polygon points="189.15 133.05 191.45 133.48 191.97 135.9 192.48 133.48 194.78 133.05 192.49 132.49 191.97 130.2 191.44 132.49 189.15 133.05" style="fill:#a6a6a6"></polygon><path d="M110.12,298.08a.67.67,0,0,1,0,1.33A.67.67,0,0,1,110.12,298.08Z" style="fill:#a6a6a6"></path><path d="M181.22,268.8a.67.67,0,0,1,0,1.33A.67.67,0,0,1,181.22,268.8Z" style="fill:#a6a6a6"></path><path d="M166.74,175.66a.47.47,0,0,1,0,.94A.47.47,0,0,1,166.74,175.66Z" style="fill:#a6a6a6"></path><path d="M93.61,223.88a1.28,1.28,0,0,1,0,2.55A1.28,1.28,0,0,1,93.61,223.88Z" style="fill:#a6a6a6"></path><path d="M418.23,206.6a1.28,1.28,0,0,1,0,2.55A1.28,1.28,0,0,1,418.23,206.6Z" style="fill:#a6a6a6"></path><path d="M149.48,183.6a1.28,1.28,0,0,1,0,2.56A1.28,1.28,0,0,1,149.48,183.6Z" style="fill:#a6a6a6"></path></g></svg>