<svg xmlns="http://www.w3.org/2000/svg" viewBox="0 0 750 500"><g id="freepik--Device--inject-2"><path d="M109.14,104.09H620a6.74,6.74,0,0,1,6.74,6.74V437a14.57,14.57,0,0,1-14.57,14.57H116A14.57,14.57,0,0,1,101.39,437V111.85A7.75,7.75,0,0,1,109.14,104.09Z" style="fill:#455a64"></path><path d="M79.42,425.83H648.63a0,0,0,0,1,0,0V442.5a13.72,13.72,0,0,1-13.72,13.72H93.14A13.72,13.72,0,0,1,79.42,442.5V425.83a0,0,0,0,1,0,0Z" style="fill:#455a64"></path><rect x="115.49" y="117.9" width="495.7" height="293.4" style="fill:#e0e0e0"></rect><polygon points="312.29 425.83 319.35 437.06 418.74 437.06 425.3 425.83 312.29 425.83" style="fill:#263238"></polygon><rect x="130.2" y="134.9" width="467.48" height="276.4" style="fill:#263238"></rect><path d="M166.07,403.18c-.24,0-.44-58.86-.44-131.46s.2-131.49.44-131.49.44,58.86.44,131.49S166.31,403.18,166.07,403.18Z" style="fill:#e0e0e0"></path><path d="M156.64,164.07c0,.24-3.4.44-7.59.44s-7.6-.2-7.6-.44,3.4-.44,7.6-.44S156.64,163.83,156.64,164.07Z" style="fill:#e0e0e0"></path><path d="M157.22,149.15c0,.24-3.4.44-7.59.44s-7.59-.2-7.59-.44,3.4-.44,7.59-.44S157.22,148.91,157.22,149.15Z" style="fill:#e0e0e0"></path><path d="M156.64,180.15c0,.24-3.4.44-7.59.44s-7.6-.2-7.6-.44,3.4-.44,7.6-.44S156.64,179.91,156.64,180.15Z" style="fill:#e0e0e0"></path><path d="M156.64,196.23c0,.25-3.4.44-7.59.44s-7.6-.19-7.6-.44,3.4-.43,7.6-.43S156.64,196,156.64,196.23Z" style="fill:#e0e0e0"></path><path d="M156.64,212.32c0,.24-3.4.44-7.59.44s-7.6-.2-7.6-.44,3.4-.44,7.6-.44S156.64,212.07,156.64,212.32Z" style="fill:#e0e0e0"></path><path d="M156.64,228.4c0,.24-3.4.44-7.59.44s-7.6-.2-7.6-.44,3.4-.44,7.6-.44S156.64,228.16,156.64,228.4Z" style="fill:#e0e0e0"></path><path d="M156.64,244.48c0,.24-3.4.44-7.59.44s-7.6-.2-7.6-.44,3.4-.44,7.6-.44S156.64,244.24,156.64,244.48Z" style="fill:#e0e0e0"></path><path d="M156.64,260.56c0,.25-3.4.44-7.59.44s-7.6-.19-7.6-.44,3.4-.43,7.6-.43S156.64,260.32,156.64,260.56Z" style="fill:#e0e0e0"></path><path d="M156.64,276.65c0,.24-3.4.43-7.59.43s-7.6-.19-7.6-.43,3.4-.44,7.6-.44S156.64,276.4,156.64,276.65Z" style="fill:#e0e0e0"></path><path d="M156.64,292.73c0,.24-3.4.44-7.59.44s-7.6-.2-7.6-.44,3.4-.44,7.6-.44S156.64,292.49,156.64,292.73Z" style="fill:#e0e0e0"></path><path d="M156.64,308.81c0,.24-3.4.44-7.59.44s-7.6-.2-7.6-.44,3.4-.44,7.6-.44S156.64,308.57,156.64,308.81Z" style="fill:#e0e0e0"></path><path d="M156.64,324.89c0,.25-3.4.44-7.59.44s-7.6-.19-7.6-.44,3.4-.43,7.6-.43S156.64,324.65,156.64,324.89Z" style="fill:#e0e0e0"></path><path d="M156.64,341c0,.24-3.4.43-7.59.43s-7.6-.19-7.6-.43,3.4-.44,7.6-.44S156.64,340.73,156.64,341Z" style="fill:#e0e0e0"></path><path d="M156.64,357.06c0,.24-3.4.44-7.59.44s-7.6-.2-7.6-.44,3.4-.44,7.6-.44S156.64,356.82,156.64,357.06Z" style="fill:#e0e0e0"></path><path d="M156.64,373.14c0,.24-3.4.44-7.59.44s-7.6-.2-7.6-.44,3.4-.44,7.6-.44S156.64,372.9,156.64,373.14Z" style="fill:#e0e0e0"></path><path d="M156.64,389.22c0,.25-3.4.44-7.59.44s-7.6-.19-7.6-.44,3.4-.44,7.6-.44S156.64,389,156.64,389.22Z" style="fill:#e0e0e0"></path><path d="M217.51,163.12c0,.24-8.82.44-19.7.44s-19.71-.2-19.71-.44,8.82-.44,19.71-.44S217.51,162.88,217.51,163.12Z" style="fill:#FF725E"></path><path d="M217.51,389.22c0,.25-8.82.44-19.7.44s-19.71-.19-19.71-.44,8.82-.44,19.71-.44S217.51,389,217.51,389.22Z" style="fill:#FF725E"></path><path d="M272.4,196.23c0,.25-16.51.44-36.87.44s-36.87-.19-36.87-.44,16.5-.43,36.87-.43S272.4,196,272.4,196.23Z" style="fill:#FF725E"></path><path d="M357.68,196.23c0,.25-16.51.44-36.87.44s-36.88-.19-36.88-.44,16.51-.43,36.88-.43S357.68,196,357.68,196.23Z" style="fill:#e0e0e0"></path><path d="M325.09,212.32c0,.24-24.33.44-54.34.44s-54.34-.2-54.34-.44,24.32-.44,54.34-.44S325.09,212.07,325.09,212.32Z" style="fill:#e0e0e0"></path><path d="M325.09,228.4c0,.24-24.33.44-54.34.44s-54.34-.2-54.34-.44,24.32-.44,54.34-.44S325.09,228.16,325.09,228.4Z" style="fill:#e0e0e0"></path><path d="M399.9,276.65c0,.24-24.34.43-54.34.43s-54.35-.19-54.35-.43,24.33-.44,54.35-.44S399.9,276.4,399.9,276.65Z" style="fill:#e0e0e0"></path><path d="M367.61,244.48c0,.24-24.33.44-54.33.44s-54.35-.2-54.35-.44,24.33-.44,54.35-.44S367.61,244.24,367.61,244.48Z" style="fill:#e0e0e0"></path><path d="M500.42,244.48c0,.24-24.33.44-54.33.44s-54.35-.2-54.35-.44,24.33-.44,54.35-.44S500.42,244.24,500.42,244.48Z" style="fill:#e0e0e0"></path><path d="M454.24,212.32c0,.24-24.34.44-54.34.44s-54.34-.2-54.34-.44,24.32-.44,54.34-.44S454.24,212.07,454.24,212.32Z" style="fill:#fafafa"></path><path d="M529.31,276.65c0,.24-24.33.43-54.34.43s-54.34-.19-54.34-.43,24.32-.44,54.34-.44S529.31,276.4,529.31,276.65Z" style="fill:#fafafa"></path><path d="M514.32,228.4c0,.24-37.78.44-84.38.44s-84.38-.2-84.38-.44,37.77-.44,84.38-.44S514.32,228.16,514.32,228.4Z" style="fill:#455a64"></path><path d="M217.51,180.15c0,.24-8.82.44-19.7.44s-19.71-.2-19.71-.44,8.82-.44,19.71-.44S217.51,179.91,217.51,180.15Z" style="fill:#fafafa"></path><path d="M217.51,373.14c0,.24-8.82.44-19.7.44s-19.71-.2-19.71-.44,8.82-.44,19.71-.44S217.51,372.9,217.51,373.14Z" style="fill:#fafafa"></path><path d="M237,244.48c0,.24-8.82.44-19.71.44s-19.71-.2-19.71-.44,8.83-.44,19.71-.44S237,244.24,237,244.48Z" style="fill:#fafafa"></path><path d="M552.93,244.48c0,.24-8.82.44-19.7.44s-19.71-.2-19.71-.44,8.82-.44,19.71-.44S552.93,244.24,552.93,244.48Z" style="fill:#FF725E"></path><path d="M272.4,308.72c0,.24-16.51.44-36.87.44s-36.87-.2-36.87-.44,16.5-.44,36.87-.44S272.4,308.47,272.4,308.72Z" style="fill:#FF725E"></path><path d="M357.68,308.72c0,.24-16.51.44-36.87.44s-36.88-.2-36.88-.44,16.51-.44,36.88-.44S357.68,308.47,357.68,308.72Z" style="fill:#e0e0e0"></path><path d="M325.09,324.8c0,.24-24.33.44-54.34.44s-54.34-.2-54.34-.44,24.32-.44,54.34-.44S325.09,324.56,325.09,324.8Z" style="fill:#e0e0e0"></path><path d="M325.09,340.88c0,.24-24.33.44-54.34.44s-54.34-.2-54.34-.44,24.32-.44,54.34-.44S325.09,340.64,325.09,340.88Z" style="fill:#e0e0e0"></path><path d="M367.61,357c0,.25-24.33.44-54.33.44s-54.35-.19-54.35-.44,24.33-.43,54.35-.43S367.61,356.72,367.61,357Z" style="fill:#e0e0e0"></path><path d="M500.42,357c0,.25-24.33.44-54.33.44s-54.35-.19-54.35-.44,24.33-.43,54.35-.43S500.42,356.72,500.42,357Z" style="fill:#e0e0e0"></path><path d="M454.24,324.8c0,.24-24.34.44-54.34.44s-54.34-.2-54.34-.44,24.32-.44,54.34-.44S454.24,324.56,454.24,324.8Z" style="fill:#fafafa"></path><path d="M514.32,340.88c0,.24-37.78.44-84.38.44s-84.38-.2-84.38-.44,37.77-.44,84.38-.44S514.32,340.64,514.32,340.88Z" style="fill:#455a64"></path><path d="M237,357c0,.25-8.82.44-19.71.44s-19.71-.19-19.71-.44,8.83-.43,19.71-.43S237,356.72,237,357Z" style="fill:#fafafa"></path><path d="M552.93,357c0,.25-8.82.44-19.7.44s-19.71-.19-19.71-.44,8.82-.43,19.71-.43S552.93,356.72,552.93,357Z" style="fill:#FF725E"></path><path d="M563.44,436c0,.14-100.64.26-224.76.26S113.9,436.12,113.9,436s100.62-.26,224.78-.26S563.44,435.84,563.44,436Z" style="fill:#263238"></path></g><g id="freepik--Plant--inject-2"><path d="M97.07,347.83a57.06,57.06,0,0,0-54.45-14.95,99.15,99.15,0,0,0,55.1,17.21" style="fill:#FF725E"></path><path d="M78.6,282.43c2.27-16.05-4-34.1-16-45.76-.39,15.9,6.32,33.79,16,45.76" style="fill:#FF725E"></path><path d="M88.21,312.74a85.64,85.64,0,0,0-39.35-37.61,54.08,54.08,0,0,0,39.5,37.78" style="fill:#FF725E"></path><path d="M90.2,318.58c-9.69.28-19.5-.06-28.87-2.54S43,308.79,36.74,301.37a96.45,96.45,0,0,1,53.31,16.27" style="fill:#FF725E"></path><path d="M85.28,299.32c4.92-18.44,13-31.19,27.53-41.52a38.33,38.33,0,0,1-27.53,41.52" style="fill:#FF725E"></path><path d="M121.86,331.12a27.28,27.28,0,0,0-16.58-25.28c.81,9.52,8.29,20.53,16.58,25.28" style="fill:#FF725E"></path><path d="M126.49,315.57a40.68,40.68,0,0,1,26.64-34.69c-3.35,15.41-12.25,28.24-26.64,34.69" style="fill:#FF725E"></path><path d="M119.51,343.16c3.42-4.89,9-7.93,14.77-9.44s11.8-1.65,17.76-1.77A41.53,41.53,0,0,1,120,345.31" style="fill:#FF725E"></path><path d="M112.59,382.45a45.5,45.5,0,0,1,55.56,26.33C148,405,128.05,396,112.59,382.45" style="fill:#FF725E"></path><path d="M90.44,368.8c3.35,9.91,2.7,21.89-4.75,30.43a36.34,36.34,0,0,1,4.75-30.43" style="fill:#FF725E"></path><path d="M77.34,363.29a37.28,37.28,0,0,1-20.59,30.26,2.34,2.34,0,0,1-1.82.3c-.91-.37-1-1.61-.88-2.59,1.46-12.69,10.87-25,23.29-28" style="fill:#FF725E"></path><path d="M68.79,362a30.58,30.58,0,0,1-44.67.23c14.2-1.55,30.58-2.59,44.67-.23" style="fill:#FF725E"></path><path d="M66.66,248.49s0,.15.13.42l.44,1.2c.4,1.08,1,2.62,1.71,4.6s1.65,4.44,2.67,7.29l1.64,4.56L75,271.69c2.52,7.19,5.31,15.82,8.33,25.43s6.07,20.25,9.13,31.47,5.69,22,8,31.78,4.12,18.69,5.49,26.19q.53,2.81,1,5.34t.81,4.77c.51,3,.95,5.55,1.25,7.66s.57,3.71.74,4.85q.14.79.21,1.26a2.72,2.72,0,0,0,.09.43,2.43,2.43,0,0,0,0-.44c0-.31-.09-.73-.16-1.26-.15-1.14-.36-2.78-.64-4.87s-.67-4.69-1.16-7.68c-.24-1.49-.5-3.09-.77-4.78s-.63-3.48-1-5.35c-1.33-7.51-3.19-16.39-5.38-26.23S96,339.68,93,328.44,86.82,306.6,83.83,297s-5.88-18.23-8.44-25.4q-1-2.7-1.81-5.13l-1.69-4.55c-1-2.84-2-5.28-2.75-7.26s-1.39-3.49-1.81-4.56c-.21-.5-.37-.89-.48-1.18A3,3,0,0,0,66.66,248.49Z" style="fill:#263238"></path><path d="M144.66,289.11s-.09.07-.25.23l-.68.71c-.59.63-1.45,1.58-2.52,2.83A98.46,98.46,0,0,0,132.85,304a74.82,74.82,0,0,0-8.74,18.71c-2.35,7.44-3.8,15.9-5.25,24.75-2.88,17.7-6.43,33.56-9,45-1.29,5.71-2.34,10.34-3.08,13.58-.35,1.57-.62,2.81-.81,3.69-.09.4-.15.72-.2,1a1.05,1.05,0,0,0,0,.33s0-.11.1-.32.15-.56.25-.95l.92-3.67c.77-3.24,1.88-7.85,3.24-13.55,2.66-11.45,6.27-27.3,9.16-45,1.45-8.85,2.88-17.29,5.18-24.7a75.68,75.68,0,0,1,8.59-18.64,108.93,108.93,0,0,1,8.2-11.22c1-1.26,1.88-2.23,2.44-2.88l.64-.75Z" style="fill:#263238"></path><path d="M64.55,361.4a1.74,1.74,0,0,0,.51.09l1.47.17,1.06.1,1.26.19c.9.13,1.93.27,3,.51l1.77.36,1.89.47c1.31.3,2.67.78,4.12,1.22a61.35,61.35,0,0,1,9,4,51.22,51.22,0,0,1,8.06,5.6,38.41,38.41,0,0,1,3.09,3,32.77,32.77,0,0,1,2.45,2.82,29.38,29.38,0,0,1,1.81,2.5,17.24,17.24,0,0,1,1.24,2l.75,1.27c.18.29.28.44.3.43a1.56,1.56,0,0,0-.2-.47l-.67-1.33a15.44,15.44,0,0,0-1.17-2,26.41,26.41,0,0,0-1.76-2.56,29.72,29.72,0,0,0-2.42-2.9,40.62,40.62,0,0,0-3.09-3A49.41,49.41,0,0,0,88.92,368a58,58,0,0,0-9.1-4c-1.46-.42-2.83-.89-4.16-1.17l-1.91-.45L72,362.09c-1.13-.23-2.17-.34-3.08-.44l-1.26-.15-1.07-.05-1.48-.06A1.89,1.89,0,0,0,64.55,361.4Z" style="fill:#263238"></path><path d="M60.5,289.45a6.82,6.82,0,0,0,1,1L64.45,293c2.48,2.12,5.94,5,9.77,8.21s7.34,6,9.88,8.08l3,2.41a8.11,8.11,0,0,0,1.16.82,7.3,7.3,0,0,0-1-1L84.34,309c-2.48-2.12-5.93-5-9.77-8.2s-7.33-6-9.87-8.08l-3-2.41A6.94,6.94,0,0,0,60.5,289.45Z" style="fill:#263238"></path><path d="M57,308.23c0,.15,7.42,2.47,16.65,5.2s16.77,4.83,16.81,4.69-7.41-2.48-16.65-5.21S57.06,308.09,57,308.23Z" style="fill:#263238"></path><path d="M84.54,300.75a5.78,5.78,0,0,0,.77-1.07l2-3c1.66-2.52,4-6,6.83-9.63s5.5-6.85,7.48-9.13l2.36-2.69a5.88,5.88,0,0,0,.83-1,6,6,0,0,0-1,.88c-.61.6-1.46,1.48-2.49,2.59-2.07,2.21-4.82,5.38-7.63,9.05s-5.14,7.17-6.73,9.75c-.79,1.29-1.41,2.35-1.82,3.09A7.08,7.08,0,0,0,84.54,300.75Z" style="fill:#263238"></path><path d="M110.43,311.18a26.69,26.69,0,0,0,1.75,2.88c1.12,1.75,2.63,4.18,4.19,6.93s2.89,5.29,3.82,7.15a25.89,25.89,0,0,0,1.58,3,17.13,17.13,0,0,0-1.23-3.14c-.85-1.9-2.12-4.48-3.7-7.25s-3.14-5.18-4.34-6.88A17.69,17.69,0,0,0,110.43,311.18Z" style="fill:#263238"></path><path d="M119.29,343.67c0,.07,1.46-.62,3.79-1.67s5.58-2.42,9.25-3.7,7.07-2.25,9.55-2.88,4-1,4-1.05a4,4,0,0,0-1.11.11c-.71.11-1.73.3-3,.57a82.77,82.77,0,0,0-18.87,6.6c-1.15.57-2.07,1.06-2.69,1.42A4.31,4.31,0,0,0,119.29,343.67Z" style="fill:#263238"></path><path d="M112.32,382.51s.15.08.46.16l1.34.34,5,1.15a162.32,162.32,0,0,1,16.19,4.27,71.7,71.7,0,0,1,15.11,7.1c1.81,1.15,3.22,2.17,4.17,2.9a16.14,16.14,0,0,0,1.5,1.11s-.11-.14-.34-.36-.57-.54-1-.92a45,45,0,0,0-4.09-3.05,66.09,66.09,0,0,0-15.14-7.29,135.27,135.27,0,0,0-16.29-4.14l-5-1A15.25,15.25,0,0,0,112.32,382.51Z" style="fill:#263238"></path><path d="M87.1,392.09c.15,0,1-5.21,2-11.68s1.6-11.74,1.45-11.76-1,5.21-2,11.68S87,392.07,87.1,392.09Z" style="fill:#263238"></path><path d="M60.84,382.56a27.72,27.72,0,0,0,2.37-2.81c1.42-1.77,3.38-4.2,5.61-6.85s4.28-5,5.78-6.7A29.16,29.16,0,0,0,77,363.38a3.73,3.73,0,0,0-.76.65c-.46.43-1.1,1.09-1.89,1.91-1.57,1.64-3.68,4-5.91,6.61s-4.15,5.13-5.49,7c-.68.92-1.21,1.67-1.56,2.19A3.65,3.65,0,0,0,60.84,382.56Z" style="fill:#263238"></path><polygon points="130.33 406.91 130.33 419.88 127.08 419.88 115.55 456.28 89.98 456.28 78.81 420.24 74.48 419.88 74.48 406.91 130.33 406.91" style="fill:#FF725E"></polygon><g style="opacity:0.30000000000000004"><polygon points="130.33 406.91 130.33 419.88 127.08 419.88 115.55 456.28 89.98 456.28 78.81 420.24 74.48 419.88 74.48 406.91 130.33 406.91"></polygon></g><path d="M76.64,420.24c0,.15,11.3.27,25.22.27s25.22-.12,25.22-.27-11.29-.27-25.22-.27S76.64,420.09,76.64,420.24Z" style="fill:#263238"></path><path d="M58.25,336.79a10,10,0,0,0,1.64.44l4.49,1.09c3.78.93,9,2.35,14.61,4.25s10.64,3.9,14.22,5.44l4.23,1.85a10.75,10.75,0,0,0,1.57.64,9.92,9.92,0,0,0-1.48-.83c-1-.5-2.39-1.19-4.17-2a150.22,150.22,0,0,0-14.19-5.61,147.14,147.14,0,0,0-14.7-4.11c-1.91-.42-3.46-.73-4.54-.91A9.54,9.54,0,0,0,58.25,336.79Z" style="fill:#263238"></path><path d="M85.13,440.45c0,.15,7.93.27,17.7.27s17.69-.12,17.69-.27-7.92-.27-17.69-.27S85.13,440.3,85.13,440.45Z" style="fill:#fafafa"></path><path d="M84.14,437.44c0,.15,8.4.27,18.75.27s18.75-.12,18.75-.27-8.39-.27-18.75-.27S84.14,437.29,84.14,437.44Z" style="fill:#fafafa"></path></g><g id="freepik--Floor--inject-2"><path d="M709.46,456.48c0,.15-152.44.27-340.44.27s-340.48-.12-340.48-.27S181,456.22,369,456.22,709.46,456.34,709.46,456.48Z" style="fill:#263238"></path></g></svg>